<?xml version="1.0" standalone="no"?>
<!DOCTYPE svg PUBLIC "-//W3C//DTD SVG 20010904//EN"
 "http://www.w3.org/TR/2001/REC-SVG-20010904/DTD/svg10.dtd">
<svg version="1.0" xmlns="http://www.w3.org/2000/svg"
 width="700.000000pt" height="700.000000pt" viewBox="0 0 700.000000 700.000000"
 preserveAspectRatio="xMidYMid meet">
<metadata>
Created by potrace 1.14, written by Peter Selinger 2001-2017
</metadata>
<g transform="translate(0.000000,700.000000) scale(0.100000,-0.100000)"
fill="#000000" stroke="none">
<path d="M1240 6993 c-37 -14 -74 -49 -91 -87 -17 -38 -19 -71 -19 -398 0
-318 -2 -358 -16 -358 -33 0 -127 -54 -173 -100 -30 -30 -59 -73 -77 -114
l-28 -66 -351 0 c-392 0 -407 -3 -456 -71 l-24 -34 -3 -333 c-3 -325 -2 -334
19 -371 12 -21 38 -48 59 -60 36 -20 50 -21 394 -21 l356 0 0 -195 0 -195
-322 0 c-178 -1 -343 -5 -367 -9 -51 -10 -87 -35 -118 -81 -23 -33 -23 -37
-23 -359 0 -319 1 -327 23 -365 14 -25 39 -48 66 -63 44 -23 47 -23 393 -23
l348 0 0 -190 0 -190 -347 0 c-331 0 -349 -1 -390 -21 -23 -11 -53 -35 -65
-52 -23 -32 -23 -35 -23 -377 l0 -345 23 -33 c48 -67 48 -67 445 -70 l357 -3
0 -194 0 -195 -359 0 c-356 0 -358 0 -392 -23 -18 -12 -44 -38 -57 -57 l-23
-34 3 -336 3 -335 24 -34 c49 -68 64 -71 459 -71 275 0 352 -3 352 -12 0 -32
62 -138 106 -180 45 -43 141 -98 172 -98 9 0 12 -77 12 -352 0 -336 1 -354 21
-395 11 -23 35 -53 52 -65 31 -23 38 -23 365 -26 325 -3 334 -2 371 19 21 12
48 38 60 59 20 36 21 50 21 394 l0 356 200 0 200 0 0 -359 c0 -356 0 -358 23
-392 12 -18 38 -44 56 -56 34 -23 37 -23 360 -23 319 0 327 1 365 23 25 14 48
39 63 66 23 44 23 47 23 393 l0 348 190 0 190 0 0 -347 c0 -331 1 -349 21
-390 11 -23 35 -53 52 -65 32 -23 35 -23 377 -23 l345 0 33 23 c64 46 64 46
62 443 l-1 359 201 0 200 0 0 -359 c0 -356 0 -358 23 -392 12 -18 38 -44 57
-57 l34 -23 336 3 335 3 34 24 c68 49 71 64 71 456 l0 351 64 27 c80 35 150
103 188 182 15 33 28 66 28 73 0 9 78 12 357 12 341 0 359 1 400 21 23 11 53
35 65 52 23 31 23 38 26 365 3 325 2 334 -19 371 -12 21 -38 48 -59 60 -36 20
-50 21 -399 21 l-361 0 0 195 0 195 328 0 c180 1 347 5 371 9 51 10 87 35 119
81 22 33 22 37 22 359 0 319 -1 327 -23 365 -14 25 -39 48 -66 63 -44 23 -47
23 -398 23 l-353 0 0 190 0 190 353 0 c351 0 354 0 398 23 27 15 53 38 67 63
22 39 22 42 20 374 -4 471 37 434 -475 438 l-363 3 0 194 0 195 364 0 c361 0
363 0 397 23 18 12 44 38 57 57 l23 34 -3 336 -3 335 -24 34 c-49 68 -64 71
-462 71 l-356 0 -13 41 c-31 94 -135 196 -232 230 l-38 13 0 355 c0 339 -1
357 -21 398 -11 23 -35 53 -52 65 -31 23 -38 23 -365 26 -325 3 -334 2 -371
-19 -21 -12 -48 -38 -60 -59 -20 -36 -21 -50 -21 -399 l0 -361 -200 0 -200 0
0 364 c0 361 0 363 -23 397 -12 18 -38 44 -56 56 -34 23 -37 23 -360 23 -319
0 -327 -1 -365 -23 -25 -14 -48 -39 -63 -66 -23 -44 -23 -47 -23 -398 l0 -353
-190 0 -190 0 0 352 c0 336 -1 354 -21 395 -11 23 -35 53 -52 65 -32 23 -35
23 -377 23 l-345 0 -33 -23 c-64 -46 -64 -46 -62 -448 l1 -364 -201 0 -200 0
0 364 c0 361 0 363 -23 397 -12 18 -38 44 -56 56 -34 23 -37 23 -360 22 -179
0 -333 -3 -341 -6z m440 -2688 l0 -565 570 0 570 0 0 565 0 565 280 0 280 0 0
-1415 0 -1415 -280 0 -280 0 -2 568 -3 567 -567 3 -568 2 0 -570 0 -570 -280
0 -280 0 0 1415 0 1415 280 0 280 0 0 -565z m4220 285 l0 -280 -683 0 -684 0
-61 -31 c-65 -32 -99 -66 -135 -133 -17 -33 -22 -57 -21 -121 0 -94 28 -160
90 -215 74 -65 70 -64 499 -71 357 -5 397 -8 469 -28 171 -46 335 -150 442
-280 62 -74 145 -235 170 -326 24 -87 29 -293 11 -381 -75 -353 -362 -623
-716 -674 -37 -5 -356 -10 -718 -10 l-653 0 0 280 0 279 663 3 662 3 57 28
c61 30 96 65 131 131 31 59 31 193 0 252 -28 53 -109 126 -159 144 -29 10
-141 15 -434 20 -428 7 -443 9 -575 69 -233 106 -405 308 -477 557 -32 113
-32 324 0 437 88 309 337 544 647 612 46 10 221 14 768 14 l707 1 0 -280z"/>
</g>
</svg>
